<svg xmlns="http://www.w3.org/2000/svg" xmlns:xlink="http://www.w3.org/1999/xlink" width="100" height="100" viewBox="0 0 100 100"><g><g transform="translate(50 50) scale(0.69 0.69) rotate(-180) translate(-50 -50)" style="fill:#000000"><svg fill="#000000" xmlns="http://www.w3.org/2000/svg" xmlns:xlink="http://www.w3.org/1999/xlink" version="1.1" x="0px" y="0px" viewBox="0 0 100 100" enable-background="new 0 0 100 100" xml:space="preserve"><path fill="#000000" d="M50,9.501c1.356,0,2.65,0.566,3.574,1.566l34.222,33.633c1.677,1.813,1.805,4.669,0.068,6.668  C86.918,52.455,85.49,53,84.048,53L72,53v32.092C72,87.803,69.803,90,67.092,90H32.908C30.197,90,28,87.803,28,85.092V53l-12.048,0  c-1.442,0-2.871-0.545-3.816-1.633c-1.737-1.999-1.609-4.854,0.068-6.668l34.222-33.633C47.35,10.067,48.644,9.501,50,9.501   M50,4.634c-2.665,0-5.24,1.103-7.083,3.035L8.623,41.234c-0.055,0.053-0.11,0.109-0.163,0.166c-2.67,2.874-3.387,7.06-1.827,10.664  C8.191,55.671,11.725,58,15.636,58H23v27.184C23,90.605,27.395,95,32.816,95h34.369C72.605,95,77,90.605,77,85.184V58h7.364  c3.912,0,7.445-2.329,9.003-5.935c1.56-3.604,0.844-7.79-1.827-10.664c-0.053-0.058-0.108-0.113-0.163-0.166L57.083,7.669  C55.24,5.738,52.665,4.634,50,4.634L50,4.634z"></path></svg></g></g></svg>