<svg xmlns:dc="http://purl.org/dc/elements/1.1/" xmlns:cc="http://creativecommons.org/ns#" xmlns:rdf="http://www.w3.org/1999/02/22-rdf-syntax-ns#" xmlns:svg="http://www.w3.org/2000/svg" xmlns="http://www.w3.org/2000/svg" xmlns:sodipodi="http://sodipodi.sourceforge.net/DTD/sodipodi-0.dtd" xmlns:inkscape="http://www.inkscape.org/namespaces/inkscape" viewBox="0 0 26.458333 26.458334" version="1.1" x="0px" y="0px"><g transform="translate(0,-270.54165)"><path style="color:#000000;font-style:normal;font-variant:normal;font-weight:normal;font-stretch:normal;font-size:medium;line-height:normal;font-family:sans-serif;font-variant-ligatures:normal;font-variant-position:normal;font-variant-caps:normal;font-variant-numeric:normal;font-variant-alternates:normal;font-feature-settings:normal;text-indent:0;text-align:start;text-decoration:none;text-decoration-line:none;text-decoration-style:solid;text-decoration-color:#000000;letter-spacing:normal;word-spacing:normal;text-transform:none;writing-mode:lr-tb;direction:ltr;text-orientation:mixed;dominant-baseline:auto;baseline-shift:baseline;text-anchor:start;white-space:normal;shape-padding:0;clip-rule:nonzero;display:inline;overflow:visible;visibility:visible;opacity:1;isolation:auto;mix-blend-mode:normal;color-interpolation:sRGB;color-interpolation-filters:linearRGB;solid-color:#000000;solid-opacity:1;vector-effect:none;fill:#000000;fill-opacity:1;fill-rule:nonzero;stroke:none;stroke-width:4;stroke-linecap:round;stroke-linejoin:round;stroke-miterlimit:4;stroke-dasharray:none;stroke-dashoffset:0;stroke-opacity:1;color-rendering:auto;image-rendering:auto;shape-rendering:auto;text-rendering:auto;enable-background:accumulate" d="M 64.96875 3.0019531 A 2.0002001 2.0002001 0 0 0 63.587891 3.5859375 L 3.5878906 63.585938 A 2.0002001 2.0002001 0 0 0 2.9960938 65.001953 L 2.9960938 95.001953 A 2.0002001 2.0002001 0 0 0 4.9980469 97.003906 L 34.998047 97.003906 A 2.0002001 2.0002001 0 0 0 36.414062 96.412109 L 96.414062 36.412109 A 2.0002001 2.0002001 0 0 0 96.414062 33.585938 L 66.414062 3.5859375 A 2.0002001 2.0002001 0 0 0 64.96875 3.0019531 z M 65.005859 7.8300781 L 92.169922 34.996094 L 84.996094 42.171875 L 57.830078 15.005859 L 65.005859 7.8300781 z M 55.003906 17.832031 L 82.169922 44.998047 L 79.998047 47.169922 L 52.832031 20.003906 L 55.003906 17.832031 z M 50.005859 22.830078 L 54.673828 27.498047 L 28.582031 53.582031 A 2.0043972 2.0043972 0 1 0 31.417969 56.417969 L 57.501953 30.326172 L 69.673828 42.498047 L 43.582031 68.582031 A 2.0043972 2.0043972 0 1 0 46.417969 71.417969 L 72.501953 45.326172 L 77.171875 49.996094 L 35 92.171875 L 7.828125 65 L 50.005859 22.830078 z M 6.9980469 69.822266 L 30.177734 93.001953 L 15.833984 93.001953 L 6.9980469 84.166016 L 6.9980469 69.822266 z M 6.9980469 89.828125 L 10.171875 93.001953 L 6.9980469 93.001953 L 6.9980469 89.828125 z " transform="matrix(0.26458333,0,0,0.26458333,0,270.54165)"></path></g></svg>