<svg xmlns="http://www.w3.org/2000/svg" xmlns:xlink="http://www.w3.org/1999/xlink" width="100" height="100" viewBox="0 0 100 100"><g><g transform="translate(50 50) scale(0.69 0.69) rotate(0) translate(-50 -50)" style="fill:#232323"><svg fill="#232323" xmlns="http://www.w3.org/2000/svg" xmlns:xlink="http://www.w3.org/1999/xlink" xml:space="preserve" version="1.1" style="shape-rendering:geometricPrecision;text-rendering:geometricPrecision;image-rendering:optimizeQuality;" viewBox="0 0 50000 50000" x="0px" y="0px" fill-rule="evenodd" clip-rule="evenodd"><defs><style type="text/css">
   
    .fil0 {fill:#232323;fill-rule:nonzero}
   
  </style></defs><g><g><path class="fil0" d="M10363 30389c67,182 -26,385 -209,452 -183,67 -385,-27 -452,-210 -327,-888 -579,-1813 -748,-2766 -166,-931 -252,-1888 -252,-2865 0,-4500 1824,-8575 4774,-11524 2949,-2950 7024,-4774 11524,-4774 4500,0 8575,1824 11524,4774 2950,2949 4774,7024 4774,11524 0,417 -16,834 -48,1249 -32,420 -79,833 -141,1238 -29,193 -209,326 -401,297 -193,-29 -325,-209 -296,-401 60,-393 105,-788 135,-1186 30,-392 45,-791 45,-1197 0,-4306 -1745,-8204 -4567,-11025 -2821,-2822 -6719,-4567 -11025,-4567 -4306,0 -8204,1745 -11025,4567 -2822,2821 -4567,6719 -4567,11025 0,937 82,1854 240,2744 162,912 403,1796 715,2645z"></path><path class="fil0" d="M25000 1149c6586,0 12549,2669 16865,6986 4317,4316 6986,10279 6986,16865 0,6586 -2669,12549 -6986,16865 -4316,4317 -10279,6986 -16865,6986 -6586,0 -12549,-2669 -16865,-6986 -4317,-4316 -6986,-10279 -6986,-16865 0,-6586 2669,-12549 6986,-16865 4316,-4317 10279,-6986 16865,-6986zm16367 7484c-4189,-4188 -9975,-6779 -16367,-6779 -6392,0 -12178,2591 -16367,6779 -4188,4189 -6779,9975 -6779,16367 0,6392 2591,12178 6779,16367 4189,4188 9975,6779 16367,6779 6392,0 12178,-2591 16367,-6779 4188,-4189 6779,-9975 6779,-16367 0,-6392 -2591,-12178 -6779,-16367z"></path><polygon class="fil0" points="22906,9346 21516,1844 22208,1717 23598,9219 "></polygon><polygon class="fil0" points="26099,9090 27489,1587 28181,1714 26791,9216 "></polygon><polygon class="fil0" points="11448,16998 4713,13412 5044,12792 11779,16378 "></polygon><polygon class="fil0" points="13235,14339 8232,8579 8764,8118 13767,13879 "></polygon><polygon class="fil0" points="38709,33455 45444,37040 45113,37661 38378,34075 "></polygon><polygon class="fil0" points="9728,28802 2430,31029 2226,30357 9524,28130 "></polygon><polygon class="fil0" points="9114,25659 1502,25124 1549,24421 9161,24957 "></polygon><polygon class="fil0" points="41040,25115 48652,25651 48605,26353 40993,25818 "></polygon><polygon class="fil0" points="40684,21943 47982,19716 48186,20389 40888,22615 "></polygon><path class="fil0" d="M22075 35126c792,1161 1343,2278 1422,3426 73,1054 -248,2110 -1137,3217 1194,491 2211,621 3210,497 1130,-140 2260,-608 3600,-1246l231 -110c981,-469 3020,-1442 3863,-1711 492,-156 1165,-186 1868,-218 646,-29 1318,-59 1841,-190 794,-198 1189,-777 1546,-1301 83,-121 164,-240 263,-372 14,-18 26,-38 37,-57 98,-179 60,-411 -36,-627 -112,-251 -295,-471 -458,-593 -25,-19 -49,-35 -72,-47 -42,-23 -244,299 -463,647 -105,168 -213,339 -327,495 -246,334 -744,625 -1260,825 -606,234 -1271,352 -1595,271 -341,-85 -581,-338 -730,-674 -145,-327 -202,-739 -178,-1132 43,-675 490,-891 889,-1084 101,-49 197,-96 254,-139 768,-575 1471,-1326 2113,-2134 648,-815 1237,-1692 1772,-2508 642,-980 450,-1481 -9,-1782 -356,-233 -859,-387 -1317,-527 -95,-29 -188,-58 -289,-90 -455,-144 -1016,-290 -1553,-396 -450,-89 -875,-147 -1188,-147 -299,0 -607,104 -911,261 -331,170 -656,399 -962,629 -180,135 -419,313 -646,478 -258,186 -554,397 -860,605l-397 -581c289,-197 582,-405 843,-595 293,-212 503,-367 638,-469 335,-251 691,-502 1062,-693 397,-204 811,-341 1233,-341 359,0 830,64 1324,161 550,108 1140,263 1629,419 83,26 181,56 280,86 508,156 1067,327 1499,610 789,517 1160,1314 214,2758 -542,827 -1141,1718 -1810,2560 -675,847 -1418,1640 -2243,2259 -116,87 -240,147 -370,210 -224,108 -475,230 -492,491 -18,292 19,587 117,807 64,143 150,247 259,274 196,49 686,-55 1170,-243 408,-158 787,-368 946,-585 103,-141 202,-299 300,-454 401,-638 772,-1229 1395,-890 51,28 104,63 157,102 245,184 517,508 678,870 177,396 231,847 11,1249 -26,48 -57,96 -92,143 -72,96 -157,220 -243,347 -429,629 -904,1325 -1957,1588 -587,147 -1298,178 -1982,209 -656,29 -1285,58 -1686,185 -778,248 -2800,1213 -3772,1677l-231 111c-1401,667 -2590,1156 -3818,1309 -1181,147 -2379,-22 -3799,-648 -238,208 -552,419 -817,583l1975 1153 48 97c2,3 659,1315 -399,1689 -422,148 -989,283 -1535,265 -440,-15 -868,-128 -1209,-405 -348,-282 -474,-468 -643,-716 -152,-224 -345,-508 -868,-1031 -356,-356 -823,-772 -1339,-1232 -1889,-1681 -4415,-3930 -4694,-6028 -314,-2361 -75,-4160 956,-5392 1031,-1229 2822,-1854 5607,-1860 620,-1 1744,71 3040,155 2076,134 4597,297 6098,231l30 702c-1545,68 -4083,-95 -6172,-230 -1296,-84 -2419,-157 -2996,-155 -2558,5 -4175,546 -5067,1609 -890,1063 -1087,2686 -799,4849 245,1835 2659,3985 4465,5593 529,471 1008,898 1370,1259 558,559 778,881 951,1136 134,197 234,345 504,565 207,168 489,237 788,247 444,15 920,-100 1279,-227 230,-81 114,-448 43,-623l-2850 -1662 552 -298c3,-2 989,-533 1350,-930 984,-1082 1338,-2082 1270,-3063 -69,-1001 -574,-2010 -1301,-3076l582 -397z"></path><path class="fil0" d="M12888 35456c-114,211 -385,399 -709,625 -254,177 -548,381 -775,600 -300,289 -447,623 -488,959 -52,421 59,851 242,1205 230,446 479,713 708,811 95,40 183,46 258,20 85,-30 170,-105 247,-223 215,-330 336,-925 275,-1780l703 -46c72,1018 -96,1764 -388,2212 -164,251 -371,419 -605,501 -244,86 -505,74 -765,-37 -374,-159 -749,-536 -1059,-1135 -241,-468 -386,-1041 -316,-1614 59,-485 270,-966 700,-1380 273,-263 588,-482 861,-672 249,-174 458,-319 491,-379l620 333z"></path><path class="fil0" d="M13007 33193c-989,444 -1624,23 -1936,-673 -186,-415 -240,-935 -171,-1402 74,-496 288,-949 635,-1190 591,-412 1483,-234 2567,1321l-579 403c-784,-1125 -1303,-1343 -1585,-1146 -178,124 -294,398 -341,714 -51,345 -15,722 116,1013 156,347 484,553 1007,318l287 642z"></path><path class="fil0" d="M32520 31584c-446,526 -1221,831 -2008,890 -386,29 -778,0 -1139,-91 -374,-93 -717,-253 -988,-483 -341,-289 -567,-680 -604,-1179 -124,-1646 604,-2173 1601,-2192 856,-16 1897,406 2677,739l-276 648c-720,-307 -1676,-697 -2390,-684 -574,11 -990,356 -909,1437 22,293 155,523 355,693 186,157 431,269 705,338 287,72 602,95 916,71 614,-46 1204,-266 1523,-642l537 455z"></path><path class="fil0" d="M35415 28327c338,0 644,137 866,359 221,221 359,527 359,866 0,338 -138,644 -359,866 -222,221 -528,358 -866,358 -338,0 -644,-137 -866,-358 -222,-222 -359,-528 -359,-866 0,-339 137,-645 359,-866 222,-222 528,-359 866,-359zm367 857c-94,-93 -224,-152 -367,-152 -144,0 -273,59 -367,152 -94,94 -152,224 -152,368 0,143 58,273 152,367 94,94 223,152 367,152 143,0 273,-58 367,-152 94,-94 152,-224 152,-367 0,-144 -58,-274 -152,-368z"></path><polygon class="fil0" points="37291,14879 44026,11293 44356,11913 37621,15499 "></polygon><polygon class="fil0" points="34679,12419 39682,6658 40214,7118 35211,12879 "></polygon></g></g></svg></g></g></svg>